<svg height="600" width="600" viewBox="0 0 600 500" class="" xmlns="http://www.w3.org/2000/svg">
  <rect width="700" height="450" fill="#E2A839" />
  <path
    d="M224.62 94C223.725 95.496 222.606 96.8452 221.3 98C222.219 97.7963 223.044 97.2927 223.645 96.5685C224.246 95.8443 224.589 94.9406 224.62 94ZM230.8 107.14C231.291 107.288 231.813 107.303 232.312 107.184C232.811 107.064 233.269 106.814 233.64 106.46C234.78 104.76 231.64 100.18 230.34 98.58C232.6 103.44 235.34 107.14 230.8 107.14ZM224.08 100.76C224.46 101.7 224.4 102.88 225.16 102.76C225.92 102.64 225.16 101.48 225.04 100.58C225 100.24 223.9 100.12 224.08 100.76ZM233.82 99.82C234 100.32 234.96 100.18 234.78 99.56C234.641 99.0578 234.474 98.5638 234.28 98.08C234.1 97.58 233.14 97.72 233.34 98.32C233.54 98.92 233.64 99.34 233.82 99.82ZM226.56 116.74C230.26 115.64 231.8 116.62 232 116.1C232.583 114.507 232.92 112.834 233 111.14C233.18 106.42 227.68 108.54 226.06 116.56C226.059 116.619 226.076 116.677 226.109 116.725C226.142 116.774 226.19 116.81 226.245 116.83C226.3 116.85 226.361 116.852 226.417 116.836C226.474 116.82 226.524 116.786 226.56 116.74ZM231.44 109.18C233.44 109.18 232.06 113.84 231.58 115.66C229.944 115.556 228.301 115.684 226.7 116.04C227.26 113.64 229 109.44 231.44 109.18ZM328.62 98.52C327.545 97.5527 326.681 96.3751 326.08 95.06C326.009 95.4552 326.019 95.8607 326.11 96.2518C326.2 96.643 326.37 97.0116 326.607 97.3353C326.845 97.6589 327.146 97.9309 327.492 98.1345C327.838 98.3382 328.222 98.4694 328.62 98.52ZM339.38 99.84C338.651 99.9486 337.934 100.129 337.24 100.38C336.531 100.541 335.807 100.629 335.08 100.64C335.771 101.055 336.589 101.202 337.382 101.055C338.174 100.907 338.884 100.475 339.38 99.84ZM328.06 109.32C331.7 111.32 332.9 105.56 332.9 101.32C332.56 106 328.56 109.5 328.06 109.32ZM321 112.34C320.981 112.419 320.981 112.501 321 112.58C320.99 112.5 320.99 112.42 321 112.34Z"
    fill="black" />
  <path
    d="M327.22 113.38C327.1 113.8 326.1 113.74 323.78 113.74C322.6 113.74 320.94 113.74 320.92 112.58C320.92 114.7 325.3 114.58 326.8 114.18C327.1 114.06 327.92 114.18 327.66 113.36C327.14 111.56 321.54 109.36 320.94 112.34C321.6 110.36 327.5 112.3 327.22 113.38ZM489.78 344.36C487.2 344.72 467.78 345.78 458.28 345.74C458.413 344.136 459.026 342.61 460.04 341.36C464.24 336.38 473.54 336.24 479.16 333.68C499.78 324.3 507.16 289.42 505.84 267.44C505.402 258.944 502.844 250.694 498.4 243.44C497.88 243.824 497.495 244.363 497.3 244.98C497.3 247.38 498.78 249.94 499.3 253.34C499.3 253.84 498.7 253.88 498.46 253.58C496.76 250.64 494.76 243.44 497.76 242.62C493.377 236.168 487.224 231.119 480.04 228.08C481.342 228.48 482.618 228.961 483.86 229.52C457.52 214.88 433.5 241.28 443.32 245.38C447.64 245.38 449.46 243.72 449.7 244.32C449.94 244.92 446.56 246.22 443.7 245.8C440.505 246.898 437.373 248.174 434.32 249.62C432.02 248.32 429.2 248.58 430.5 249.34C431.542 249.953 432.731 250.271 433.94 250.26C433.961 250.318 433.998 250.368 434.048 250.404C434.099 250.44 434.158 250.459 434.22 250.46C430.44 254.22 432.7 255.42 435.1 250.46C438.55 249.169 441.922 247.68 445.2 246C451.86 248.38 451.02 246.22 468.72 245.46C468.378 243.719 467.842 242.021 467.12 240.4C467.02 240.12 467.36 239.9 467.52 240.16C468.736 242.172 469.576 244.388 470 246.7C469.513 250.113 469.246 253.553 469.2 257C465.2 272.4 457.86 281 462.28 289.54C464.396 292.908 467.537 295.508 471.24 296.96C479.24 300.08 487.24 304.84 484.98 313.16L485.88 311.96C485.7 312.9 485.52 313.96 484.8 313.62C483.56 313.14 486.3 309.62 482.44 304.74C481.665 310.574 479.444 316.122 475.98 320.88C469.42 326.7 461.06 325.02 453.12 329C450.169 330.537 447.64 332.773 445.754 335.514C443.868 338.254 442.682 341.415 442.3 344.72C437.36 344.06 427.6 341.14 424.98 345.16C422.76 348.62 426.72 353.94 430.26 363.38C437 374.9 427.64 377.98 421.74 404.68C419.54 414.48 418.4 424.68 424.72 432.46C433.14 442.82 446.32 445.24 458.46 445.76C466.96 445.76 498.46 446.5 497.72 413.96C497.62 406.6 495.72 402.62 493.46 393.6C487.74 371.36 487.96 375.14 492.72 363.6C503.28 342 496.74 343.32 489.78 344.36ZM444.16 239.86C443.92 240.04 443.62 239.86 443.82 239.52C445.74 237.14 446.82 238.14 444.16 239.86ZM455.92 233.02C454.06 235.02 451.02 234.26 452.22 233.7C453.282 233.113 454.393 232.618 455.54 232.22C455.624 232.238 455.702 232.275 455.769 232.329C455.836 232.382 455.89 232.45 455.926 232.527C455.963 232.604 455.981 232.689 455.98 232.774C455.979 232.86 455.959 232.944 455.92 233.02ZM485.36 249.76C485.12 247.02 491.84 242.58 494.84 254.7C494.822 254.801 494.776 254.894 494.708 254.97C494.639 255.045 494.551 255.1 494.452 255.127C494.354 255.154 494.25 255.153 494.152 255.123C494.054 255.094 493.967 255.037 493.9 254.96C493.06 253.4 492.88 251.58 492.06 250.04C491.24 248.5 489.86 247.28 488.2 247.92C487.877 247.951 487.566 248.059 487.294 248.237C487.022 248.415 486.798 248.656 486.64 248.94L487.46 250.26C487.499 250.236 487.543 250.221 487.589 250.214C487.634 250.207 487.68 250.209 487.725 250.221C487.769 250.232 487.811 250.252 487.848 250.279C487.885 250.306 487.916 250.341 487.94 250.38C487.964 250.419 487.979 250.463 487.986 250.508C487.993 250.554 487.991 250.6 487.979 250.645C487.968 250.689 487.948 250.731 487.921 250.768C487.894 250.805 487.859 250.836 487.82 250.86C487.607 251.048 487.344 251.171 487.064 251.214C486.783 251.257 486.495 251.218 486.236 251.102C485.976 250.986 485.756 250.798 485.601 250.56C485.445 250.322 485.362 250.044 485.36 249.76ZM425.62 432.1C419.62 424.62 420.74 414.78 422.84 405.28C428.84 378.62 438.32 375.44 431.3 363.28L426.48 352C422.92 343.64 429.26 344 438.22 345.66C449.12 374.98 442.46 377.28 436.22 396.1C430.64 413.64 436.06 434.1 450.42 444.3C445.679 444.037 441.039 442.821 436.778 440.725C432.517 438.629 428.722 435.695 425.62 432.1ZM458.44 444.86C450.92 433.56 451.92 420.54 451.52 416.86C451.52 397.4 460.54 383.28 458.56 354.14C458.12 347.36 458.4 347.36 457.72 347.36C456.12 348.2 459.3 358.08 457.38 373.5C454.9 393.5 443.08 422.68 456.74 444.5H454.5L452.18 444.3C451.8 442.7 441.28 439.84 436.64 422.3C430.32 398.96 444.64 385.28 444.64 374.3C444.38 372.12 447.26 367.04 439.26 345.74C440.54 345.74 446.9 348.14 476.54 346.64C474.08 354.22 470.42 369.48 470.42 376.36C469.2 395.56 479.82 416.36 463.2 444.84L458.44 444.86ZM464.44 444.86C482.62 413 468.12 393.48 472.44 367.06C475 353.88 477.68 347.06 477.5 346.6C483.1 346.32 486.96 346.06 489.64 345.86C486.98 361.86 483.06 368.2 481.96 375.2C481.96 389.54 498.44 418.66 482.2 436.44L481.92 436.74C474.24 444.98 465.68 444.28 465.2 444.86H464.44ZM495 404.32C499.9 421.64 493.58 439.28 473.72 443.74C478.065 441.922 481.838 438.965 484.64 435.18C496.2 419.06 487.96 397.88 483.4 379.18C481.92 373 487.76 363.62 490.72 345.7C495.82 345.3 495.92 345.16 496.34 345.54C499.78 348.7 492.7 361.78 490.46 366.46C486.16 374 488.26 379.48 495 404.32Z"
    fill="black" />
  <path
    d="M515.3 260.72C513.88 246.72 500.24 237.36 488.26 231.98C490.26 234.54 518.26 248.52 503.46 298.98C509.78 287.08 516.64 273.72 515.3 260.72ZM327.28 101.16C327.347 101.186 327.418 101.198 327.49 101.195C327.561 101.193 327.632 101.176 327.697 101.147C327.762 101.117 327.821 101.074 327.869 101.022C327.918 100.969 327.956 100.907 327.98 100.84C328.24 100.14 327.44 100.34 326.26 98.96C325.78 98.4 324.12 99.4 327.28 101.16ZM336.46 104C336.571 103.944 336.659 103.851 336.709 103.737C336.759 103.623 336.768 103.496 336.736 103.376C336.703 103.256 336.629 103.151 336.528 103.079C336.427 103.007 336.304 102.972 336.18 102.98C335.653 103.122 335.105 103.176 334.56 103.14C333.82 103.12 333.46 104.82 336.46 104Z"
    fill="black" />
  <path
    d="M452.84 192.4C452.84 191.56 452.84 191.5 452.6 191.1C452.241 190.711 451.8 190.406 451.309 190.209C450.817 190.012 450.288 189.927 449.76 189.96C436.84 188.38 425.48 187.84 414.48 195.04C414.157 194.523 413.735 194.075 413.24 193.72C413.84 186.52 406.96 187.96 400.58 188.92C401.82 187.44 402.58 186.92 402.06 186.5C393.768 179.37 384.576 173.359 374.72 168.62C424.08 143.48 443.24 138.08 441.86 134.62L440.84 132.44C424.38 140.44 408.28 145.68 370.16 166.44C364.64 163.64 359.32 160.6 355.78 155.36C351.78 150.16 342.84 133.5 331.78 126.86C330.4 122.5 332.14 118.64 334.1 113.64L334.44 113.76C333.68 115.9 333.12 120.32 333.76 121.18C334.628 121.568 335.533 121.869 336.46 122.08C336.846 117.779 338.326 113.647 340.76 110.08C347.36 98.36 349.9 85.94 341.3 75.46C332.7 64.98 312.36 61.48 303 75.54C292.26 91.42 298.02 108.54 285.84 124.04C276.29 127.332 267.56 132.639 260.24 139.6C258.655 137.898 256.899 136.363 255 135.02C252.699 133.492 250.278 132.155 247.76 131.02C249.77 127.643 251.077 123.895 251.6 120C253.7 105.56 242.56 104.84 240.06 93.06C236.28 77.72 221.9 69.56 209 75.58C200.32 79.12 193.2 86.68 191.32 94.42C190.2 98.98 190.8 103.98 184.44 108.28C169.64 119.5 181.8 138.8 191 140.42C187.387 143.714 184.704 147.901 183.22 152.56C183.34 154.2 178.48 162.82 188.94 178.78C188.38 184.78 186.14 185.96 186.82 192.5C186.934 193.919 187.419 195.283 188.226 196.455C189.034 197.628 190.135 198.567 191.42 199.18C183.56 210.62 182.02 216.52 175.96 231.76C166.28 256.7 153.1 255.64 150.7 264.4C149.92 267.94 152.04 272.4 154.58 274.98C163.34 284.32 177.3 295.42 192.58 299.32C193.2 318.92 189.86 342.7 186.18 355.16C185.992 355.131 185.8 355.159 185.629 355.241C185.457 355.323 185.315 355.455 185.22 355.62C183.22 359.28 179.48 365.78 182.72 369.62C185.08 372.46 201.2 375.62 204.84 376.16C207.099 376.72 209.461 376.72 211.72 376.16C212.365 375.535 212.781 374.71 212.9 373.82C212.3 366.26 199.08 364.26 200.02 358.58C205.48 350.58 204.56 352.32 207.38 348.22L207.06 349.06C206.02 351.58 205.06 353.22 203.8 355.64C202.34 355.1 202.2 357.02 201.8 357.88V358C201.572 358.699 201.513 359.443 201.628 360.169C201.743 360.896 202.028 361.585 202.46 362.18C208.46 366.04 210.9 367.46 212.72 370.04C213.29 370.861 213.654 371.808 213.78 372.8V372.62C213.776 372.317 213.743 372.016 213.68 371.72C213.949 372.197 214.17 372.7 214.34 373.22C215.02 374.86 222.56 374 224.34 373.68C228.56 373.3 229.76 368.5 225.46 365.68H225.36C219.08 360.22 221.36 359.52 219.98 358.88C219.841 358.861 219.699 358.861 219.56 358.88C221.56 355.1 233.02 342.56 242.58 330.06C240.32 354.4 238.84 353.38 238.2 370.06C238.2 370.06 239.34 370.58 240.96 371.2C236.96 378.6 239.16 380.78 242.96 382.76C248.52 385.6 265.26 391.1 263.74 384.44C262.16 381.18 257.58 379.32 251.08 374.18L250.82 374.5C259.3 381.54 261.46 382.18 262.82 384.76C263.82 389.74 241.18 382.22 239.72 379.4C239.16 377.9 241.02 373.5 241.94 371.56C244.96 372.724 248.147 373.399 251.38 373.56C254.82 373.56 251.1 376.5 280.3 311C290.78 287.82 293.8 282.28 297.64 271.98C300.96 263.18 304.14 254.16 307.12 245.98C304.7 254.9 306.36 249.5 302.38 263.1C303.64 267.48 335.28 372.98 340.6 371.6C341.025 371.655 341.455 371.655 341.88 371.6C341.2 377.22 341.88 377.82 347.16 378.74C354.02 379.98 371.62 379.9 367.46 374.32C365.28 371.96 361.04 371.3 353.46 368.54L352.92 368.34C354.5 367.78 353.96 369.48 352.7 331.14C350.18 256.84 355.98 312.28 348.12 222.86C347.32 213.16 345.34 201.44 340.82 192.86C345.79 195.04 350.953 196.754 356.24 197.98C368.349 200.719 380.796 201.663 393.18 200.78C393.64 200.78 393.46 200.5 394.88 197.72C397.12 201.32 401.86 200.56 405.92 199.3C406.647 199.895 407.431 200.417 408.26 200.86C401.26 209.18 399.96 216.86 398.26 226.28C398 227.72 396.42 236.28 398.26 237.68C398.293 237.699 398.331 237.709 398.37 237.709C398.409 237.709 398.447 237.699 398.48 237.68C398.844 237.893 399.258 238.003 399.68 238C402.14 237.64 412.98 231.14 415.1 229.74C415.68 229.72 455.38 198.22 452.84 192.4ZM342.48 371.32C343.92 371 348.36 369.76 352.28 368.4C352.5 368.4 363.6 372.76 364.28 373.08C366.28 373.92 368.1 375.8 366.28 376.72C362.1 378.48 351.94 378.3 347.46 377.62C342.98 376.94 342.12 376.92 342.48 371.32ZM452.36 193.86C451.12 197 449.66 198.26 444.24 203.6C439.62 200.687 434.3 199.07 428.84 198.92C436.108 195.079 444.13 192.881 452.34 192.48C452.51 192.923 452.517 193.412 452.36 193.86ZM365.64 164.94L369.24 166.94C355.76 174.28 350.7 177.24 339.98 182.46C340.34 157.12 347.32 157.82 333.74 136.74C334.832 136.437 335.907 136.077 336.96 135.66C334.93 133.524 333.339 131.01 332.28 128.26C346.76 136.88 351.32 157.22 365.64 164.94ZM307.64 103.78H307.96C307.577 105.627 307.463 107.52 307.62 109.4C307.9 113.24 306.96 115.3 308.88 114.84H310.88C309.6 103.6 318.64 90.58 318.12 92.28C313.847 99.0027 311.648 106.835 311.8 114.8H313.4C313.26 114.52 312.22 113.64 314.22 106.94C317.84 94.2 327.26 91.42 328 87.5H328.34C328.001 89.3558 327.116 91.0686 325.8 92.42C326.4 92.88 327.06 93.26 327.7 93.68C330.102 90.6555 332.031 87.2837 333.42 83.68C332.552 87.4694 330.696 90.9612 328.04 93.8C329.158 94.537 330.32 95.2049 331.52 95.8C333.208 93.6178 334.396 91.0917 335 88.4C335 88.26 335.24 88.4 335.22 88.4C334.888 91.1588 333.832 93.7807 332.16 96C332.92 96.4214 333.734 96.7377 334.58 96.94C336.794 93.4682 338.119 89.505 338.44 85.4C338.44 85.4 338.62 85.28 338.62 85.4C338.68 89.5459 337.616 93.6307 335.54 97.22C337.82 97.9 338.16 97.98 338.72 97.6C340.305 94.2674 341.086 90.6093 341 86.92H341.12C343.12 102.64 331.8 121.48 318.9 116.92C316.64 116.1 314.9 112.66 314.56 121.46C314.32 124.44 314.3 126.12 316.38 126.98C315.952 126.713 315.574 126.375 315.26 125.98C314.54 124.7 315.26 120.8 315.64 119.48C319.22 121.36 320.18 124.6 321.22 128.34C320.7 129.82 320.22 131.3 319.64 132.76C317.64 138.02 312.86 138.76 308.3 135.84C306.49 134.501 304.748 133.073 303.08 131.56C304.18 122 303.74 115.42 307.68 103.78H307.64ZM315.64 137.96C315.78 138.32 317.28 140.2 317.02 141.84C317.007 142.076 316.915 142.3 316.758 142.476C316.601 142.652 316.388 142.769 316.156 142.809C315.923 142.848 315.684 142.808 315.478 142.693C315.271 142.579 315.11 142.398 315.02 142.18C314.6 141.3 315.58 138.8 315.56 137.98L315.64 137.96ZM302.6 134.9C302.74 133.96 302.86 133.02 302.96 132.06C306.04 135.18 310.96 138.94 315.18 138.06C311.46 145.8 321.46 144.6 316.54 137.6C319.18 136.26 320.54 132.86 321.38 129.6C322.041 132.466 322.931 135.275 324.04 138C325.376 138.021 326.711 137.96 328.04 137.82C334.16 152.82 334.56 168.2 333.08 185.82C328.76 187.82 324.4 189.82 320.02 191.54V191.3C320.03 191.22 320.03 191.14 320.02 191.06C320.54 189.06 313.7 190.16 312.02 190.88C312.101 190.377 311.986 189.862 311.7 189.44C311.52 188.72 305.7 187.66 304.9 187.44C306.36 185.58 309.68 153.22 302.48 134.92L302.6 134.9ZM209.62 105.8H210.5V105.58C210.596 105.492 210.653 105.37 210.66 105.24C211.94 100.64 220.66 97.24 220.8 88.04C224.063 87.8677 227.32 88.4779 230.3 89.82C231.774 90.789 232.919 92.1843 233.58 93.82C232.5 93.64 231.58 93.52 230.46 93.24C230.847 93.6991 231.361 94.0334 231.938 94.2007C232.514 94.3679 233.127 94.3608 233.7 94.18L235.7 100C239.28 109.82 233.4 117.62 227.46 118.68C225.1 118.9 224.24 117.74 225.78 121.56C222.16 125.32 216.8 123.92 212.74 120.72C212.517 117.274 212.07 113.847 211.4 110.46H211L210.76 110H210.6C205.72 112.12 202.34 100.6 209.62 105.8ZM224.74 123.8C225.302 123.46 225.814 123.043 226.26 122.56C227.58 125.62 227.28 125.64 228.64 126.84C228.365 127.96 227.799 128.988 227 129.82C226.08 127.852 225.325 125.812 224.74 123.72V123.8ZM226.56 130.4C224.817 131.835 222.592 132.55 220.34 132.4C220.254 129.875 220.368 127.347 220.68 124.84C221.894 124.872 223.094 124.582 224.16 124C224.447 126.205 225.241 128.314 226.48 130.16C226.495 130.218 226.522 130.273 226.56 130.32V130.4ZM219.92 132.24C217.879 131.941 215.912 131.263 214.12 130.24C215.34 128.007 215.81 125.441 215.46 122.92C216.944 123.684 218.547 124.192 220.2 124.42C219.474 126.938 219.378 129.596 219.92 132.16V132.24ZM212.8 121.18C213.505 121.761 214.261 122.276 215.06 122.72C214.4 122.92 215.5 125.14 213.46 129.88L210.76 128.34C212.293 126.283 213.019 123.736 212.8 121.18ZM183.56 162.52C183.17 158.496 183.755 154.438 185.266 150.689C186.777 146.939 189.169 143.609 192.24 140.98C197.421 136.884 202.987 133.3 208.86 130.28C209.44 129.782 209.988 129.247 210.5 128.68C214.5 131.5 219.1 134.04 223.76 132.68C225.13 132.372 226.386 131.689 227.39 130.707C228.393 129.725 229.103 128.483 229.44 127.12C231.78 127.98 232.8 127.44 236.9 128.56L239.74 129.24C247.329 130.741 254.25 134.597 259.52 140.26C250.06 149.12 244.2 159.42 245.14 173.1C241.155 172.671 237.144 172.544 233.14 172.72C229.718 164.622 224.336 157.502 217.48 152C217.431 151.951 217.37 151.915 217.304 151.894C217.238 151.874 217.168 151.869 217.1 151.88C217.033 151.881 216.967 151.897 216.908 151.929C216.849 151.96 216.798 152.005 216.76 152.06C216.679 152.162 216.637 152.29 216.64 152.42C216.645 152.489 216.663 152.556 216.694 152.618C216.725 152.68 216.768 152.735 216.82 152.78C223.688 158.272 229.044 165.424 232.38 173.56C232.418 173.652 232.482 173.731 232.563 173.787C232.645 173.844 232.741 173.876 232.84 173.88C236.961 173.643 241.094 173.737 245.2 174.16C245.597 178.405 246.958 182.504 249.18 186.144C251.402 189.783 254.425 192.867 258.02 195.16C256.4 202.42 242.56 202.66 235.56 202.34C210.46 201.78 200.1 194.16 189.08 176.68V177.1C186.101 172.751 184.208 167.751 183.56 162.52ZM187.84 192.36C187.22 186.36 189.08 185.3 189.84 180.02C201 196.26 213.12 203.7 239 203.54C226.711 205.62 214.119 205.026 202.08 201.8C194.78 200 188.2 198.2 187.84 192.36ZM198.46 358.16C194.517 358.739 190.498 357.857 187.16 355.68C190.04 346.7 194.28 322.14 193.7 299.68C205.36 302.42 215.58 300.84 227.06 302.84C219.28 329.04 209.34 343.62 198.46 358.16ZM242.64 328.72C231.22 343.68 220.78 354.16 218.44 359.2C217.048 359.999 215.412 360.263 213.84 359.94C206.66 358.8 204.72 357.34 204.6 356.96C204.627 356.815 204.625 356.666 204.594 356.522C204.563 356.378 204.504 356.241 204.42 356.12C209.62 347.46 210.42 343.34 211.8 341.14C221.2 325.56 223.6 316.98 228.16 302.94C237.56 304.8 238.26 307.2 245.12 308.5C244.22 315.14 243.38 321.74 242.64 328.72ZM252.46 252C246.46 300.16 253.98 244.64 245.24 307.72C239.7 306.58 237.98 304.18 228.36 302.24C206.6 299.52 203.5 300.84 193.42 298.24V298C184.37 295.771 175.957 291.479 168.84 285.46C164.116 282.069 159.729 278.232 155.74 274C150.34 268.48 151.46 262.64 155.74 259.88C180.32 242.9 175.46 223.76 192.34 199.56C202.719 203.761 213.803 205.947 225 206C234.352 205.763 243.643 204.421 252.68 202C253.306 201.519 253.976 201.097 254.68 200.74H255C255.332 200.627 255.647 200.473 255.94 200.28C256.76 202.62 257.68 204.92 258.6 207.22C253.4 222.38 254.58 235.58 252.46 252ZM259.1 205.72C258.26 203.72 257.46 201.72 256.76 199.6C257.889 198.594 258.673 197.257 259 195.78C260.14 196.5 261.28 197.18 262.46 197.78C261.133 200.314 260.01 202.948 259.1 205.66V205.72ZM246.34 168.98C246.771 160.409 250.043 152.225 255.64 145.72C269.76 130.32 284.74 125.46 284.5 125.72C289.56 129.24 295.22 133.14 301.6 134.66C303.907 141.143 305.254 147.928 305.6 154.8C307.28 174.8 303.6 186.44 304.14 187.24C297.1 186.18 289.2 184.44 286.72 177.68C286.176 175.864 286.041 173.95 286.325 172.076C286.608 170.202 287.303 168.414 288.36 166.84C290.953 162.908 294.153 159.411 297.84 156.48L297 155.76C293.282 158.754 290.062 162.318 287.46 166.32C286.35 168.029 285.626 169.959 285.34 171.977C285.053 173.994 285.21 176.05 285.8 178C291.04 190.52 310.82 187.2 310.68 190.22V201.28C310.251 201.512 309.803 201.707 309.34 201.86C287.7 209.8 244.38 198.7 246.34 168.98ZM331.58 202.2C317.7 208.2 305.58 207.38 290.28 205.42C297.64 205.76 310.08 204.28 311.84 201.88C313.96 203 318.74 202.4 317.52 200.52C322.56 201.06 322.9 199.16 321.82 198.18C321.94 198.68 320.94 198.9 320.46 198.96C317.58 199.22 316.04 198.26 316.86 199.46C318.3 201.04 313.46 201.16 312.02 200.22V191.74C313.64 191.06 318.02 190 319.66 190.72C319.66 190.88 319.42 190.98 319.3 191.16C318.58 192.34 317.04 192.44 315.9 193.04C320.52 194.32 321.04 196.16 323.9 194.72C323.9 194.96 324.04 195.16 323.34 195.7C322.262 196.253 321.044 196.476 319.84 196.34C319.776 196.357 319.719 196.395 319.679 196.447C319.639 196.499 319.617 196.564 319.617 196.63C319.617 196.696 319.639 196.76 319.679 196.813C319.719 196.865 319.776 196.903 319.84 196.92C320.6 197.12 321.62 197.38 321.84 197.98C322.586 197.987 323.318 197.772 323.94 197.36C325.42 194.54 324.42 194.66 324.38 194.46L332.6 190.22C332.36 192.42 332.24 193 332.24 193.68C334.769 193.39 337.115 192.214 338.86 190.36C338.42 197.88 338.42 199.22 331.58 202.2ZM338.8 189.72C337.242 191.351 335.215 192.456 333 192.88C333.12 191.82 333.24 190.88 333.36 189.78L338.84 186.98L338.8 189.72ZM339 182.82L333.9 185.24C335.46 169.24 335.14 152.34 328.52 137.66C330.092 137.479 331.65 137.185 333.18 136.78C346.36 157.74 339.66 156.54 339 182.82ZM392.46 199.54C380.533 200.477 368.533 199.621 356.86 197C351.174 195.66 345.609 193.854 340.22 191.6L339.88 190.96V186.46L373.62 169.18C383.413 174.019 392.603 179.994 401 186.98C397.521 190.7 394.64 194.937 392.46 199.54ZM403.02 198.96C399.24 199.68 397.2 199.58 395.44 196.38C396.73 193.952 398.272 191.666 400.04 189.56C406.4 188.84 410.66 187.88 412.04 191.16C412.18 192.028 412.18 192.912 412.04 193.78C412.04 194.94 411.9 194.88 410.66 194.88C410.66 194.7 410.26 193.06 410.24 192.88C410 191.72 403.58 193.66 405.84 195.14C406.82 195.7 408.72 195.14 409.84 195.52C409.893 195.678 409.99 195.816 410.12 195.92C409.56 197.36 408.56 197.06 406.86 197.72C405.607 198.233 404.317 198.647 403 198.96H403.02ZM409.6 194.5H407.6C408.213 194.284 408.841 194.117 409.48 194L409.6 194.5ZM406.84 198.78C408.02 198.38 410.84 198.6 411.32 196.2C411.659 196.228 411.999 196.155 412.298 195.992C412.597 195.828 412.841 195.581 413 195.28C413.131 195.448 413.278 195.602 413.44 195.74C411.835 196.972 410.348 198.351 409 199.86C408.18 200 407.48 199.32 406.84 198.78ZM398.58 236.78C398.513 236.71 398.459 236.629 398.42 236.54C397.907 233.087 398.077 229.567 398.92 226.18C402.92 202.18 416.18 191.56 431.88 190.18C434.68 189.86 452.04 189.24 452.34 191.7C439.854 192.089 427.809 196.407 417.92 204.04C405 215.1 401 231.24 398.62 236.54L398.58 236.78ZM401.54 236.5C400.803 236.991 399.923 237.223 399.04 237.16C401.42 234.02 401.98 224.08 412.58 211.84C411.807 217.579 412.411 223.42 414.34 228.88C410.211 231.657 405.938 234.214 401.54 236.54V236.5ZM415.2 228.18C413.349 222.763 412.601 217.03 413 211.32C415.001 209.041 417.196 206.939 419.56 205.04C422.356 209.376 425.535 213.452 429.06 217.22C424.669 221.166 420.04 224.839 415.2 228.22V228.18ZM429.76 216.6C426.6 212.6 423.2 208.6 419.92 204.7C422.528 202.579 425.326 200.705 428.28 199.1C433.654 199.717 438.839 201.454 443.5 204.2C439 208.56 434.4 212.64 429.76 216.64V216.6Z"
    fill="black" />
</svg>